PathFileType  4	(X/Y/Z) C:\Users\antoi\Documents\MyRepositories\mobilecap\ResultsAnalysis
DataRate	CameraRate	NumFrames	NumMarkers	Units	OrigDataRate	OrigDataStartFrame	OrigNumFrames
100.0	100.0	4	51	mm	100.0	133	265
Frame#	Time	r_knee			r_shank_antsup			r_ankle			r_calc			r_5meta			r_toe			L_knee			L_shank_antsup			L_ankle			L_calc			L_5meta			L_toe			r_sh2			r_sh3			r_sh4			L_sh2			L_sh3			r_thigh1			r_thigh2			r_thigh3			r_thigh4			r_thigh5			L_thigh1			L_thigh2			L_thigh3			L_thigh4			r.ASIS			r.PSIS			L.ASIS			L.PSIS			C7			R_Shoulder			L_Shoulder			R_Sternum			L_Sternum			R_humerus			R_elbow_med			R_elbow_lat			R_forearm			R_wrist_radius			R_wrist_ulna			L_humerus			L_elbow_med			L_elbow_lat			L_forearm			L_wrist_radius			L_wrist_ulna			R_HJC			L_HJC			R_HJC_reg			L_HJC_reg			
		X1	Y1	Z1	X2	Y2	Z2	X3	Y3	Z3	X4	Y4	Z4	X5	Y5	Z5	X6	Y6	Z6	X7	Y7	Z7	X8	Y8	Z8	X9	Y9	Z9	X10	Y10	Z10	X11	Y11	Z11	X12	Y12	Z12	X13	Y13	Z13	X14	Y14	Z14	X15	Y15	Z15	X16	Y16	Z16	X17	Y17	Z17	X18	Y18	Z18	X19	Y19	Z19	X20	Y20	Z20	X21	Y21	Z21	X22	Y22	Z22	X23	Y23	Z23	X24	Y24	Z24	X25	Y25	Z25	X26	Y26	Z26	X27	Y27	Z27	X28	Y28	Z28	X29	Y29	Z29	X30	Y30	Z30	X31	Y31	Z31	X32	Y32	Z32	X33	Y33	Z33	X34	Y34	Z34	X35	Y35	Z35	X36	Y36	Z36	X37	Y37	Z37	X38	Y38	Z38	X39	Y39	Z39	X40	Y40	Z40	X41	Y41	Z41	X42	Y42	Z42	X43	Y43	Z43	X44	Y44	Z44	X45	Y45	Z45	X46	Y46	Z46	X47	Y47	Z47	X48	Y48	Z48	X49	Y49	Z49	X50	Y50	Z50	X51	Y51	Z51	

133	1.32000000	-410.72274	813.90502	-415.27248	-355.35708	708.06765	-419.90665	-374.91943	357.48489	-418.19552	-439.78780	346.40748	-474.74065	-260.44316	241.26012	-402.34377	-210.86347	279.43806	-456.04048	-454.33659	794.95399	-795.38806	-392.65731	703.50457	-788.20015	-420.16700	350.88511	-793.69917	-479.65133	335.92625	-732.98876	-301.41154	237.97694	-820.64547	-256.99957	263.68806	-761.43699	-329.69219	596.09837	-435.33706	-416.15328	686.11583	-376.22210	-383.89557	575.09672	-373.32895	-476.93023	691.84802	-817.91857	-438.46680	577.07870	-839.63383	-391.11361	1060.03868	-448.04478	-361.29831	950.22139	-459.75961	-375.42790	918.49131	-400.72686	-462.11650	1030.40446	-364.47494	-428.97972	917.95819	-383.77989	-448.45622	1057.57458	-796.40677	-402.86786	927.51428	-789.63836	-550.58355	1019.93202	-825.87242	-504.37349	889.52174	-817.10793	-443.62708	1261.94263	-460.24501	-613.78176	1379.25122	-539.92423	-460.59935	1245.11342	-725.16150	-621.56369	1375.74021	-639.74499	-296.77889	1777.40438	-619.64303	-253.36100	1707.07011	-438.16214	-257.01607	1711.02343	-785.67462	-222.44555	1635.01010	-593.48978	-232.35373	1628.40758	-632.80754	-380.58350	1654.07461	-332.49951	-621.52536	1679.43521	-353.43881	-582.36388	1673.04112	-276.00390	-684.42583	1529.00432	-248.15929	-784.17355	1454.76643	-235.00890	-799.03284	1480.63061	-203.90602	-396.45370	1657.97268	-898.56240	-624.07879	1658.63388	-870.53717	-595.72799	1648.72505	-946.92600	-658.89991	1486.70624	-942.67606	-736.40644	1396.80136	-965.49501	-751.60455	1421.24986	-1008.47425	-554.23003	1225.82491	-486.92333	-570.58447	1202.61199	-698.41719	-546.06331	1219.20615	-488.74957	-559.69998	1213.05558	-663.67040	
134	1.33000000	-396.24087	796.48914	-414.26765	-339.44181	691.23668	-419.21543	-356.71944	340.46949	-417.69763	-421.52968	329.28812	-474.24293	-241.89322	223.18475	-404.24332	-192.30162	262.72393	-456.55152	-440.29619	777.29865	-796.72239	-376.93573	687.16199	-789.81842	-400.38974	333.98228	-796.10293	-459.51798	319.32244	-734.95346	-282.15097	219.90165	-822.10764	-237.37559	245.97382	-763.41819	-312.76002	579.62538	-434.71392	-400.13150	668.54007	-375.69175	-366.67584	557.98331	-372.57103	-461.10811	674.23127	-819.26377	-420.85768	560.14051	-841.39198	-381.34205	1042.50834	-447.46317	-349.66859	933.21003	-459.03507	-363.37857	901.24153	-399.95398	-451.95056	1012.20239	-363.36679	-416.67252	899.92105	-382.98181	-438.29749	1039.53165	-797.44170	-390.96896	910.29608	-790.80020	-540.19347	1000.81906	-826.46015	-492.05259	871.07012	-818.18556	-435.72429	1241.75286	-459.97963	-605.12758	1359.55870	-539.60037	-452.25963	1224.46358	-725.06226	-612.58325	1355.87908	-639.65960	-284.14685	1754.85597	-620.03383	-240.52024	1684.08586	-439.03523	-245.26263	1688.44548	-786.05845	-211.14779	1611.49211	-593.98817	-221.00731	1604.88573	-633.71187	-368.88221	1634.85261	-333.04535	-608.88359	1667.31564	-353.98627	-570.30302	1659.00405	-276.96033	-676.74665	1517.76001	-251.58380	-779.87107	1446.83524	-241.65363	-792.76273	1471.75591	-208.73149	-385.83367	1637.88103	-898.28962	-613.71108	1642.36736	-869.72950	-585.45244	1631.71255	-946.00057	-650.97581	1470.52645	-940.43493	-730.93503	1381.73232	-960.94352	-746.42697	1405.20388	-1003.24085	-546.24743	1205.91913	-486.65570	-562.51074	1182.56133	-698.14068	-538.42461	1199.25507	-488.77928	-551.46948	1192.81682	-663.84213	
135	1.34000000	-380.99425	778.31864	-413.34021	-323.15720	673.17331	-418.25770	-339.98269	322.55686	-417.40580	-404.81779	310.78838	-473.75376	-224.39187	205.30040	-404.73975	-175.13651	245.42839	-456.79686	-425.51625	758.90675	-798.37366	-360.70420	669.68690	-791.66707	-381.81042	316.25739	-797.98799	-440.78055	301.53306	-736.80272	-263.71112	201.62989	-823.47680	-218.80283	227.80997	-764.99211	-296.18705	561.69612	-434.10958	-383.68731	650.39185	-374.57869	-349.88175	539.67943	-372.02420	-444.79399	655.82476	-820.96414	-403.35316	542.07034	-842.91955	-371.28193	1024.24143	-447.11054	-337.62154	915.67056	-458.29827	-350.50446	883.55947	-399.10899	-441.48965	993.61725	-361.69192	-403.61252	881.34960	-381.84214	-427.92336	1020.92668	-798.65675	-378.59549	892.26764	-792.17772	-529.40100	980.76268	-827.20382	-479.23894	851.79743	-819.54179	-427.56995	1220.38558	-460.14117	-596.67596	1338.79802	-539.26919	-443.86720	1203.07863	-725.14088	-603.78106	1334.90025	-639.43313	-271.65487	1731.28141	-620.39433	-227.90585	1659.96326	-439.83214	-233.76435	1664.85873	-786.37115	-199.90274	1586.91069	-594.55918	-209.62979	1580.41356	-634.74780	-357.20207	1614.67086	-333.51224	-596.17747	1654.31529	-354.83747	-558.16669	1643.70344	-277.76542	-669.67607	1504.77475	-256.85371	-774.10157	1436.94746	-247.69606	-786.25643	1461.20295	-214.65011	-375.37827	1616.90149	-898.07917	-602.85852	1624.79796	-868.33705	-575.28869	1613.59941	-944.84176	-642.98949	1453.14452	-937.81085	-723.93906	1365.26065	-957.68431	-741.46906	1387.41070	-997.13658	-538.05163	1184.79846	-486.62284	-554.38173	1161.59785	-698.12008	-530.60977	1178.39520	-489.19955	-543.02542	1171.58266	-664.22902	
136	1.35000000	-364.94510	759.49332	-412.51265	-306.53201	654.02827	-417.23251	-324.53688	304.09717	-417.24640	-389.46154	291.41670	-473.24213	-208.22686	188.28688	-402.40437	-159.52198	227.10710	-456.23558	-409.86646	739.84434	-800.40104	-344.00811	650.97681	-793.68381	-364.50088	297.62223	-799.49537	-423.47906	282.46885	-738.46095	-246.05521	183.05794	-824.63303	-201.27648	209.23493	-766.08118	-279.87998	542.43767	-433.54547	-366.93952	631.42451	-373.49896	-333.64219	520.54610	-371.48734	-428.14148	636.80569	-823.06601	-386.32078	523.09133	-844.60342	-360.87545	1005.50617	-446.59260	-325.03649	897.69067	-457.55601	-336.82982	865.55774	-398.22988	-430.32143	974.24481	-359.91397	-389.72616	862.34343	-380.43605	-417.20366	1001.65145	-799.77851	-365.71340	873.60518	-793.77196	-518.08205	959.78374	-828.10229	-465.77907	831.68782	-821.15294	-419.33898	1198.09681	-460.34736	-588.29991	1316.91521	-539.16029	-435.57611	1180.72789	-725.24132	-595.34584	1313.01470	-639.15956	-259.28283	1706.66914	-620.69932	-215.51658	1634.77200	-440.51552	-222.45934	1640.34371	-786.78812	-188.91472	1561.46027	-595.24641	-198.65606	1554.63493	-635.16063	-345.57204	1593.39202	-333.88534	-583.39458	1640.18417	-355.60448	-546.04215	1627.18004	-278.57252	-663.16635	1490.16714	-263.95656	-767.63011	1425.71296	-253.97905	-779.15173	1449.23067	-220.95257	-365.07264	1595.03035	-898.04207	-592.06240	1606.21261	-866.63722	-565.29573	1594.38663	-943.47568	-634.90598	1434.63607	-934.98030	-716.54482	1347.41414	-954.17593	-735.24296	1368.78942	-992.04881	-529.84257	1162.70392	-486.62156	-546.33248	1139.60318	-698.11743	-522.47768	1156.31284	-489.43378	-534.80579	1149.48757	-664.40029	
